<?xml version="1.0" standalone="no"?>
<!DOCTYPE svg PUBLIC "-//W3C//DTD SVG 20010904//EN"
 "http://www.w3.org/TR/2001/REC-SVG-20010904/DTD/svg10.dtd">
<svg version="1.0" xmlns="http://www.w3.org/2000/svg"
 width="2048.000000pt" height="2048.000000pt" viewBox="0 0 2048.000000 2048.000000"
 preserveAspectRatio="xMidYMid meet">
<metadata>
Created by potrace 1.14, written by Peter Selinger 2001-2017
</metadata>
<g transform="translate(0.000000,2048.000000) scale(0.100000,-0.100000)"
fill="#000000" stroke="none">
<path d="M13300 18870 l0 -1140 275 0 275 0 0 450 0 451 1463 -4 c1088 -2
1482 -6 1542 -15 44 -7 118 -18 165 -23 94 -13 132 -21 235 -51 173 -50 324
-103 398 -139 45 -21 86 -39 93 -39 6 0 27 -11 46 -23 19 -13 65 -41 103 -62
76 -41 234 -143 250 -161 6 -6 46 -38 90 -70 166 -123 405 -383 544 -593 56
-83 162 -273 183 -326 9 -22 27 -65 40 -95 80 -179 152 -465 173 -690 23 -244
17 -552 -16 -760 -19 -126 -90 -401 -125 -490 -64 -160 -105 -253 -124 -279
-11 -17 -28 -47 -36 -67 -18 -43 -149 -242 -174 -264 -9 -8 -30 -33 -46 -55
-27 -38 -25 -36 51 25 118 96 370 350 462 466 354 448 554 970 613 1604 14
146 14 523 0 660 -39 389 -131 713 -300 1055 -155 315 -331 558 -594 820 -586
583 -1297 892 -2176 945 -98 6 -827 10 -1787 10 l-1623 0 0 -1140z"/>
<path d="M8120 17984 c-88 -5 -293 -22 -415 -34 -135 -14 -7406 -1069 -7426
-1078 -13 -6 137 -1052 1169 -8147 652 -4477 1186 -8141 1187 -8143 5 -6 4439
640 4448 648 5 4 -39 333 -97 732 -58 398 -106 729 -106 736 0 6 -13 9 -32 7
-58 -7 -328 -45 -493 -70 -88 -13 -239 -35 -335 -49 -270 -39 -512 -75 -655
-96 -71 -11 -152 -22 -180 -24 -27 -3 -104 -15 -170 -25 -66 -11 -201 -32
-300 -46 -265 -38 -503 -73 -650 -95 -71 -11 -161 -21 -200 -22 l-70 -3 -8 65
c-4 36 -17 126 -29 200 -12 74 -23 153 -24 175 -2 22 -12 96 -23 165 -11 69
-32 206 -46 305 -14 99 -37 254 -51 345 -43 292 -73 501 -94 655 -12 83 -32
222 -45 310 -13 88 -35 239 -49 335 -14 96 -37 252 -50 345 -14 94 -34 235
-46 315 -21 150 -54 380 -95 655 -47 315 -74 502 -95 650 -12 83 -32 224 -45
315 -94 641 -123 836 -146 1000 -20 146 -49 345 -95 650 -42 288 -72 491 -93
640 -21 148 -52 357 -96 663 -14 94 -37 251 -51 347 -14 96 -35 236 -46 310
-12 74 -21 141 -21 150 1 8 -9 83 -22 165 -13 83 -35 233 -50 335 -14 102 -37
257 -50 345 -51 340 -75 505 -95 645 -19 137 -33 233 -94 650 -59 399 -76 522
-96 665 -12 83 -32 222 -45 310 -49 332 -117 798 -145 990 -12 83 -32 222 -45
310 -13 88 -34 227 -46 308 -14 98 -18 152 -12 158 6 6 55 17 109 25 361 53
444 65 569 83 77 11 217 31 310 45 94 14 249 37 345 51 96 14 252 36 345 50
94 14 235 34 315 45 80 12 222 32 315 46 94 13 249 36 345 50 96 14 247 36
335 49 88 13 228 33 310 45 83 12 222 32 310 45 88 13 241 36 340 50 99 15
252 37 340 50 88 13 230 33 315 45 85 12 227 32 315 45 255 38 724 106 955
139 110 16 305 37 377 41 23 2 57 5 75 8 59 11 289 20 478 20 228 0 404 -10
575 -32 44 -6 105 -13 135 -16 52 -4 94 -10 150 -21 33 -7 151 -24 170 -26 8
0 20 -4 25 -8 6 -4 44 -13 85 -20 41 -6 100 -20 130 -30 30 -10 80 -23 110
-30 30 -6 82 -20 115 -31 33 -10 76 -24 95 -30 19 -6 44 -14 55 -18 11 -5 52
-18 90 -31 39 -12 95 -32 125 -45 76 -33 213 -87 225 -89 6 -1 21 -9 35 -19
13 -9 30 -17 36 -17 15 0 288 -136 324 -160 14 -10 30 -19 35 -19 6 -1 26 -12
45 -24 19 -12 52 -31 72 -42 77 -41 197 -116 208 -130 7 -8 16 -15 21 -15 10
0 75 -42 111 -73 14 -12 43 -33 63 -47 54 -37 240 -185 320 -253 136 -118 497
-487 567 -581 13 -16 52 -67 88 -112 36 -45 72 -92 80 -104 8 -12 26 -37 40
-55 14 -18 31 -41 38 -51 43 -64 89 -137 124 -198 23 -39 45 -72 50 -74 4 -2
8 -12 8 -22 0 -10 6 -25 13 -32 23 -23 187 -349 187 -372 0 -7 7 -19 15 -26 8
-7 15 -19 15 -26 0 -8 9 -33 19 -57 23 -50 62 -150 89 -228 l19 -56 -30 -39
c-47 -63 -150 -223 -194 -304 -96 -175 -172 -388 -214 -598 -30 -149 -38 -468
-15 -638 58 -440 245 -826 560 -1151 84 -88 88 -94 78 -120 -6 -16 -14 -46
-17 -68 -8 -47 -37 -156 -66 -240 -11 -33 -25 -78 -30 -100 -5 -22 -14 -49
-19 -60 -5 -11 -16 -42 -25 -69 -9 -27 -25 -72 -37 -100 -11 -28 -24 -61 -29
-73 -5 -13 -14 -35 -20 -50 -6 -16 -21 -48 -34 -73 -12 -25 -28 -62 -35 -82
-6 -21 -16 -38 -21 -38 -5 0 -9 -7 -9 -16 0 -14 -40 -100 -72 -154 -5 -8 -20
-37 -34 -65 -14 -27 -35 -67 -47 -87 -12 -20 -36 -61 -53 -90 -51 -90 -58
-101 -76 -122 -10 -11 -18 -24 -18 -28 0 -5 -24 -43 -52 -84 -29 -42 -60 -86
-68 -99 -28 -43 -164 -219 -244 -315 -181 -218 -309 -350 -542 -555 -62 -55
-181 -153 -218 -180 -56 -40 -101 -76 -111 -88 -13 -15 -206 -147 -243 -166
-15 -7 -36 -21 -47 -31 -11 -9 -47 -32 -80 -50 -33 -18 -62 -36 -65 -41 -3 -4
-17 -12 -30 -18 -14 -6 -52 -26 -85 -46 -108 -62 -462 -234 -515 -250 -14 -4
-29 -11 -35 -15 -5 -4 -28 -13 -50 -20 -22 -7 -62 -23 -89 -36 -27 -13 -52
-22 -56 -19 -4 2 -16 -2 -26 -10 -10 -8 -27 -15 -37 -15 -9 0 -25 -4 -35 -9
-9 -5 -57 -22 -107 -36 -49 -15 -98 -31 -107 -36 -10 -5 -27 -9 -37 -9 -11 0
-22 -4 -25 -9 -3 -4 -25 -11 -48 -15 -50 -8 -145 -34 -170 -47 -10 -5 -35 -9
-56 -9 -21 0 -42 -4 -47 -9 -6 -4 -73 -19 -150 -31 -77 -13 -145 -27 -151 -31
-6 -5 -37 -11 -70 -14 -32 -3 -129 -17 -214 -30 -148 -23 -364 -55 -645 -95
-71 -10 -209 -30 -305 -44 -96 -14 -251 -37 -345 -50 -849 -124 -817 -118
-811 -141 2 -11 9 -56 16 -100 34 -248 50 -362 66 -468 l18 -117 30 5 c17 3
528 77 1135 166 1266 183 1461 219 1881 341 1267 367 2387 1119 3175 2133 386
497 716 1106 920 1700 21 61 39 111 40 113 2 2 41 -8 86 -22 110 -33 239 -61
380 -83 106 -16 299 -17 2677 -20 l2562 -3 0 1135 0 1135 -315 0 -315 0 -2
-922 -3 -923 -2145 0 c-2303 0 -2191 -2 -2370 51 -46 15 -92 27 -100 29 -71
14 -385 151 -400 175 -3 5 -32 24 -64 44 -32 19 -79 52 -105 73 -51 42 -230
219 -276 273 -100 118 -239 384 -281 536 -14 54 -36 131 -47 169 -17 59 -21
107 -25 300 -4 244 2 307 43 445 12 41 30 102 40 135 20 72 155 351 183 381
11 11 27 35 37 53 9 18 31 49 49 69 18 20 35 43 37 50 6 20 261 272 274 272 7
0 20 10 31 21 10 12 46 40 79 62 33 22 88 62 122 89 35 26 67 48 72 48 6 0 25
13 43 29 18 16 53 41 78 57 25 16 80 55 122 87 41 31 79 57 82 57 9 0 90 62
94 73 2 4 10 7 17 7 7 0 28 12 46 28 38 32 88 68 219 157 112 77 188 130 213
150 9 8 45 34 80 57 34 23 64 46 65 50 2 5 8 8 13 8 5 0 17 7 26 15 10 8 70
50 133 94 63 45 121 86 129 93 8 7 42 31 75 53 34 23 90 62 126 88 60 43 145
103 230 162 197 138 326 230 386 274 64 47 264 249 264 266 0 5 14 30 30 55
33 50 71 145 92 230 16 70 16 271 -1 329 l-13 44 -46 -54 c-66 -78 -156 -163
-242 -228 -114 -87 -2591 -1833 -2595 -1829 -2 1 -28 69 -59 150 -227 599
-561 1159 -970 1623 -441 501 -880 869 -1431 1201 -775 466 -1704 765 -2636
850 -163 15 -780 27 -939 18z"/>
<path d="M7967 13574 c-1 -2 -43 -6 -92 -9 -50 -3 -162 -16 -250 -30 -88 -13
-221 -33 -295 -45 -74 -11 -155 -22 -180 -24 -25 -2 -103 -13 -175 -24 -71
-12 -211 -33 -310 -47 -99 -15 -250 -37 -335 -50 -85 -13 -197 -29 -247 -36
-51 -6 -93 -16 -93 -21 0 -5 5 -42 10 -81 34 -242 54 -380 75 -522 43 -288 74
-497 100 -675 14 -96 36 -251 50 -345 14 -93 34 -235 45 -315 12 -80 32 -221
46 -315 13 -93 36 -249 50 -345 14 -96 35 -233 46 -305 11 -71 22 -150 24
-175 2 -25 12 -101 23 -170 26 -168 70 -464 77 -524 5 -46 7 -48 32 -43 15 3
61 10 102 16 41 6 152 22 245 35 94 14 251 37 350 51 99 15 234 35 300 46 66
11 156 24 200 29 44 5 123 15 175 23 52 9 178 27 280 42 204 29 256 38 315 55
22 6 60 16 85 21 25 6 55 14 68 20 41 17 67 27 102 39 40 14 202 93 242 118
14 9 48 30 75 46 53 32 189 140 244 195 34 34 85 92 157 178 58 69 142 204
193 313 27 58 56 118 64 133 8 16 15 35 15 43 0 9 9 36 19 62 19 48 57 201 53
215 -1 4 2 16 7 25 35 66 28 656 -9 797 -6 22 -20 82 -30 133 -11 51 -24 108
-29 125 -30 94 -74 222 -81 236 -4 9 -13 30 -20 46 -7 17 -16 37 -20 45 -5 8
-27 51 -50 95 -23 44 -57 103 -76 130 -18 28 -39 58 -46 69 -66 96 -300 337
-370 381 -9 5 -43 28 -75 51 -107 74 -231 138 -353 181 -25 9 -54 20 -65 24
-19 9 -163 47 -195 53 -68 13 -93 16 -150 22 -72 6 -318 13 -323 8z m-27 -783
c195 -53 350 -141 486 -276 180 -177 288 -404 330 -695 22 -153 15 -431 -16
-572 -85 -399 -324 -698 -664 -829 -167 -64 -217 -71 -588 -76 l-338 -5 0
1242 0 1242 353 -4 c329 -4 358 -6 437 -27z"/>
</g>
</svg>
